<svg xmlns="http://www.w3.org/2000/svg" viewBox="0 0 1920 1080" width="1920" height="1080">
  <defs>
    <linearGradient id="skyGradient" x1="0%" y1="0%" x2="0%" y2="100%">
      <stop offset="0%" style="stop-color:#F5D0A9;stop-opacity:1" />
      <stop offset="100%" style="stop-color:#FFFBF5;stop-opacity:1" />
    </linearGradient>
    <filter id="shadow" x="-20%" y="-20%" width="140%" height="140%">
      <feDropShadow dx="0" dy="4" stdDeviation="4" flood-color="#000000" flood-opacity="0.1"/>
    </filter>
  </defs>
  
  <!-- Sky background -->
  <rect width="1920" height="1080" fill="url(#skyGradient)" />

  <!-- Sun -->
  <circle cx="960" cy="400" r="100" fill="#FFFFFF" opacity="0.8"/>

  <!-- Far hills -->
  <path d="M -50,600 Q 200,500 500,620 T 900,580 T 1300,650 T 1600,600 T 1970,680 V 1080 H -50 Z" fill="#EADBC8" opacity="0.6"/>
  
  <!-- Middle hills -->
  <path d="M -50,750 Q 300,650 600,720 T 1100,700 T 1500,780 T 1970,750 V 1080 H -50 Z" fill="#DAC0A3" opacity="0.8"/>
  
  <!-- Foreground landscape -->
  <path d="M -50,900 Q 400,800 800,920 T 1500,880 T 1970,950 V 1080 H -50 Z" fill="#9C3353" />
  
  <!-- Stylized trees -->
  <g filter="url(#shadow)">
    <circle cx="300" cy="820" r="40" fill="#FFFFFF" opacity="0.8"/>
    <rect x="295" y="860" width="10" height="60" fill="#FFFFFF" opacity="0.8"/>
    
    <circle cx="550" cy="850" r="30" fill="#FFFFFF" opacity="0.7"/>
    <rect x="546" y="880" width="8" height="40" fill="#FFFFFF" opacity="0.7"/>

    <circle cx="1100" cy="800" r="50" fill="#FFFFFF" opacity="0.9"/>
    <rect x="1094" y="850" width="12" height="70" fill="#FFFFFF" opacity="0.9"/>
    
    <circle cx="1350" cy="830" r="35" fill="#FFFFFF" opacity="0.8"/>
    <rect x="1346" y="865" width="8" height="50" fill="#FFFFFF" opacity="0.8"/>

    <circle cx="1600" cy="860" r="25" fill="#FFFFFF" opacity="0.7"/>
    <rect x="1596" y="885" width="8" height="40" fill="#FFFFFF" opacity="0.7"/>
  </g>
  
  <!-- Subtle dots representing community -->
  <g fill="#FFFFFF" opacity="0.2">
    <circle cx="150" cy="950" r="3"/> <circle cx="160" cy="960" r="2"/> <circle cx="175" cy="945" r="4"/>
    <circle cx="400" cy="980" r="4"/> <circle cx="415" cy="970" r="3"/> <circle cx="430" cy="990" r="2"/>
    <circle cx="900" cy="960" r="5"/> <circle cx="920" cy="975" r="3"/> <circle cx="890" cy="985" r="2"/>
    <circle cx="1700" cy="990" r="3"/> <circle cx="1715" cy="980" r="4"/> <circle cx="1730" cy="995" r="2"/>
  </g>
</svg>
